<svg preserveAspectRatio="none" width="100%" height="100%" overflow="visible" style="display: block;" viewBox="0 0 15 16.5381" fill="none" xmlns="http://www.w3.org/2000/svg">
<path id="Union" d="M10.5771 0C10.8925 0 11.1543 0.261761 11.1543 0.577148V1.17871C13.6049 1.38897 15 2.96789 15 5.57715V12.1152C15 14.9229 13.3848 16.538 10.5771 16.5381H4.42285C1.6153 16.538 0 14.9229 0 12.1152V5.57715C0 2.96794 1.39513 1.38901 3.8457 1.17871V0.577148C3.8457 0.261782 4.10749 3.47543e-05 4.42285 0C4.73824 0 5 0.261761 5 0.577148V1.15332H10V0.577148C10 0.261793 10.2618 5.25452e-05 10.5771 0ZM1.1543 12.1152C1.1543 14.3152 2.22301 15.3847 4.42285 15.3848H10.5771C12.7771 15.3847 13.8467 14.3152 13.8467 12.1152V6.60742H1.1543V12.1152ZM4.51562 11.4082C4.80017 11.2852 5.13814 11.3541 5.35352 11.5693C5.38428 11.6078 5.42321 11.6461 5.44629 11.6846C5.47706 11.7307 5.50024 11.7771 5.51562 11.8232C5.53866 11.8693 5.55384 11.9159 5.56152 11.9697C5.56918 12.0157 5.57712 12.0693 5.57715 12.1152C5.57715 12.3152 5.49198 12.516 5.35352 12.6621C5.2074 12.8003 5.00744 12.8848 4.80762 12.8848C4.70772 12.8848 4.60785 12.8616 4.51562 12.8232C4.42346 12.7848 4.33855 12.7312 4.26172 12.6621C4.19255 12.5852 4.13806 12.5081 4.09961 12.4082C4.06115 12.3159 4.03809 12.2152 4.03809 12.1152C4.03815 11.9153 4.12331 11.7154 4.26172 11.5693C4.33862 11.5001 4.42336 11.4466 4.51562 11.4082ZM4.96191 8.66895C5.00791 8.67665 5.05361 8.69283 5.09961 8.71582C5.14566 8.73117 5.19223 8.75352 5.23828 8.78418C5.27668 8.8149 5.31511 8.84623 5.35352 8.87695C5.38428 8.9154 5.42321 8.95374 5.44629 8.99219C5.47706 9.03834 5.50024 9.08471 5.51562 9.13086C5.53866 9.17696 5.55384 9.22343 5.56152 9.26953C5.56919 9.32318 5.57712 9.3692 5.57715 9.42285C5.57715 9.62285 5.49198 9.82357 5.35352 9.96973C5.20739 10.108 5.00744 10.1924 4.80762 10.1924C4.70772 10.1924 4.60785 10.1693 4.51562 10.1309C4.42345 10.0925 4.33855 10.0388 4.26172 9.96973C4.19254 9.89286 4.13807 9.80804 4.09961 9.71582C4.06115 9.62351 4.03809 9.52285 4.03809 9.42285C4.03816 9.22293 4.12331 9.02305 4.26172 8.87695C4.33861 8.80777 4.42336 8.75426 4.51562 8.71582C4.65406 8.65431 4.80809 8.63818 4.96191 8.66895ZM6.9541 8.87695C7.16948 8.66172 7.51515 8.59282 7.79199 8.71582C7.89194 8.75426 7.96902 8.80778 8.0459 8.87695C8.1843 9.02304 8.26945 9.22294 8.26953 9.42285C8.26953 9.4767 8.2616 9.5233 8.25391 9.57715C8.24621 9.62325 8.23106 9.66972 8.20801 9.71582C8.19267 9.76177 8.16926 9.80757 8.13867 9.85352C8.1079 9.89198 8.07667 9.93126 8.0459 9.96973C7.96909 10.0388 7.89185 10.0925 7.79199 10.1309C7.69977 10.1693 7.5999 10.1924 7.5 10.1924C7.30017 10.1924 7.10022 10.108 6.9541 9.96973C6.92333 9.93126 6.8921 9.89198 6.86133 9.85352C6.83073 9.80756 6.80734 9.76177 6.79199 9.71582C6.76894 9.66972 6.7538 9.62325 6.74609 9.57715C6.7384 9.5233 6.73047 9.4767 6.73047 9.42285C6.73051 9.32299 6.7536 9.22305 6.79199 9.13086C6.83045 9.03855 6.88487 8.95388 6.9541 8.87695ZM5 2.88477C4.99992 3.20009 4.73819 3.46191 4.42285 3.46191C4.10754 3.46188 3.84578 3.20007 3.8457 2.88477V2.33789C2.07344 2.51306 1.19398 3.53533 1.1582 5.4541H13.8428C13.807 3.53528 12.9266 2.51302 11.1543 2.33789V2.88477C11.1542 3.20009 10.8925 3.46191 10.5771 3.46191C10.2619 3.46186 10.0001 3.20006 10 2.88477V2.30762H5V2.88477Z" fill="var(--fill-0, #6B7280)"/>
</svg>
