<svg width="14" height="14" viewBox="0 0 14 14" fill="none" xmlns="http://www.w3.org/2000/svg">
<path d="M6.84794 2.94385L0.538902 9.25288C0.451971 9.33985 0.397399 9.45394 0.384248 9.5762L0.00327009 13.0039C-0.0050645 13.0792 0.00257643 13.1555 0.025694 13.2276C0.0488115 13.2998 0.0868858 13.3662 0.137432 13.4227C0.187978 13.4791 0.24986 13.5243 0.319037 13.5552C0.388215 13.5861 0.463133 13.6021 0.538902 13.6021C0.558705 13.6021 0.578492 13.601 0.598178 13.5988L4.02806 13.2179C4.15032 13.2047 4.2644 13.1501 4.35138 13.0632L10.6583 6.7547L6.84794 2.94385Z" fill="#6B7280"/>
<path d="M13.1289 1.99777L11.6045 0.473317C11.3013 0.170252 10.8902 0 10.4615 0C10.0329 0 9.62176 0.170252 9.3186 0.473317L7.60986 2.18206L11.4202 5.99292L13.1295 4.28363C13.4325 3.98041 13.6026 3.56925 13.6025 3.14059C13.6024 2.71193 13.4321 2.30085 13.1289 1.99777Z" fill="#6B7280"/>
</svg>
