<svg preserveAspectRatio="none" width="100%" height="100%" overflow="visible" style="display: block;" viewBox="0 0 18.2961 18.2961" fill="none" xmlns="http://www.w3.org/2000/svg">
<path id="Star 1" d="M8.24292 0.574824C8.60295 -0.191608 9.69311 -0.191608 10.0531 0.574824L12.3506 5.46556C12.4497 5.6766 12.6195 5.84636 12.8305 5.9455L17.7212 8.24292C18.4877 8.60295 18.4877 9.69311 17.7212 10.0531L12.8305 12.3506C12.6195 12.4497 12.4497 12.6195 12.3506 12.8305L10.0531 17.7212C9.69311 18.4877 8.60295 18.4877 8.24292 17.7212L5.9455 12.8305C5.84636 12.6195 5.6766 12.4497 5.46556 12.3506L0.574824 10.0531C-0.191608 9.69311 -0.191608 8.60295 0.574824 8.24292L5.46556 5.9455C5.6766 5.84636 5.84636 5.6766 5.9455 5.46556L8.24292 0.574824Z" fill="var(--fill-0, white)"/>
</svg>
