<svg preserveAspectRatio="none" width="100%" height="100%" overflow="visible" style="display: block;" viewBox="0 0 16 16" fill="none" xmlns="http://www.w3.org/2000/svg">
<g id="Group">
<path id="Vector" d="M15.1111 7.82222C14.5778 7.82222 14.2222 8.17778 14.2222 8.71111V13.6889C14.2222 13.9556 13.9556 14.2222 13.6889 14.2222H2.31111C2.04444 14.2222 1.77778 13.9556 1.77778 13.6889V2.31111C1.77778 2.04444 2.04444 1.77778 2.31111 1.77778H10.8444C11.3778 1.77778 11.7333 1.42222 11.7333 0.888889C11.7333 0.355556 11.3778 0 10.8444 0H2.31111C1.06667 0 0 1.06667 0 2.31111V13.6889C0 14.9333 1.06667 16 2.31111 16H13.6889C14.9333 16 16 14.9333 16 13.6889V8.71111C16 8.26667 15.6444 7.82222 15.1111 7.82222Z" fill="var(--fill-0, #D3590B)"/>
<path id="Vector_2" d="M6.84437 7.11111C6.48881 6.75556 5.95548 6.84444 5.59993 7.2C5.33326 7.46667 5.33326 8 5.59993 8.35556L7.55548 10.4C7.73326 10.5778 7.91104 10.6667 8.1777 10.6667C8.44437 10.6667 8.62215 10.5778 8.79993 10.4L14.8444 4.17778C15.1999 3.82222 15.1999 3.28889 14.8444 2.93333C14.4888 2.57778 13.9555 2.57778 13.5999 2.93333L8.1777 8.53333L6.84437 7.11111Z" fill="var(--fill-0, #D3590B)"/>
</g>
</svg>
