<svg preserveAspectRatio="none" width="100%" height="100%" overflow="visible" style="display: block;" viewBox="0 0 13.9046 13.9046" fill="none" xmlns="http://www.w3.org/2000/svg">
<path id="Vector" d="M13.7462 12.9817L10.3528 9.58841C11.1963 8.57409 11.7045 7.2716 11.7045 5.85241C11.7045 2.62538 9.07916 0 5.85227 0C2.62531 0 0 2.62538 0 5.85241C0 9.07923 2.62531 11.7044 5.85227 11.7044C7.27139 11.7044 8.57395 11.1963 9.58826 10.3528L12.9817 13.7462C13.0873 13.8518 13.2256 13.9046 13.364 13.9046C13.5023 13.9046 13.6407 13.8518 13.7463 13.7462C13.9574 13.5351 13.9574 13.1929 13.7462 12.9817ZM1.0812 5.85241C1.0812 3.22156 3.22148 1.0812 5.85227 1.0812C8.48298 1.0812 10.6232 3.22156 10.6232 5.85241C10.6232 8.48305 8.48298 10.6232 5.85227 10.6232C3.22148 10.6232 1.0812 8.48305 1.0812 5.85241Z" fill="var(--fill-0, #6B7280)"/>
</svg>
