<svg preserveAspectRatio="none" width="100%" height="100%" overflow="visible" style="display: block;" viewBox="0 0 101 12.8643" fill="none" xmlns="http://www.w3.org/2000/svg">
<path id="Union" d="M64.5059 0.232422C66.2318 0.232422 67.6982 0.439581 68.9043 0.855469C70.1103 1.27134 71.0612 1.86968 71.7578 2.64941C72.4647 3.42912 72.9072 4.37496 73.084 5.4873L66.4551 6.56348C66.455 6.32471 66.4035 6.12224 66.2998 5.95605C66.1959 5.77936 66.0556 5.63814 65.8789 5.53418C65.7022 5.43025 65.4939 5.35277 65.2549 5.30078C65.0261 5.2488 64.7762 5.22266 64.5059 5.22266C64.1316 5.22267 63.7989 5.27495 63.5078 5.37891C63.2168 5.47248 62.9824 5.61793 62.8057 5.81543C62.6396 6.00244 62.5567 6.24146 62.5566 6.53223C62.5566 6.70885 62.5881 6.87015 62.6504 7.01562C62.7128 7.16119 62.8007 7.29188 62.915 7.40625C63.0293 7.51012 63.1645 7.59816 63.3203 7.6709C63.4866 7.73324 63.6688 7.78557 63.8662 7.82715C64.0637 7.85833 64.2772 7.87402 64.5059 7.87402C65.0569 7.87402 65.5202 7.76424 65.8945 7.5459C66.2685 7.31718 66.4551 6.98955 66.4551 6.56348L73.084 7.23438C72.9696 8.00377 72.7144 8.72653 72.3193 9.40234C71.9347 10.0781 71.3938 10.6755 70.6973 11.1953C70.0111 11.7152 69.1533 12.121 68.124 12.4121C67.1051 12.7136 65.899 12.8643 64.5059 12.8643C63.6847 12.8643 62.9259 12.8129 62.2295 12.709C61.5329 12.605 60.8876 12.4534 60.2949 12.2559C59.7128 12.0583 59.1875 11.8197 58.7197 11.5391C58.2625 11.2585 57.8573 10.9412 57.5039 10.5879C57.1504 10.2344 56.8534 9.84948 56.6143 9.43359C56.3855 9.00732 56.214 8.55443 56.0996 8.07617C55.9853 7.59805 55.9287 7.09355 55.9287 6.56348C55.9287 5.70069 56.0689 4.92633 56.3496 4.24023C56.6303 3.55402 57.0257 2.96098 57.5352 2.46191C58.0549 1.96303 58.6682 1.54747 59.375 1.21484C60.0923 0.882191 60.8823 0.637407 61.7451 0.481445C62.608 0.3151 63.5286 0.232432 64.5059 0.232422ZM76.3389 0C76.4196 0.0191005 77.9726 0.132903 78.6846 0.844727C79.0037 1.16384 79.1168 1.55838 79.1543 1.91504C79.3983 1.6147 79.7175 1.29546 80.168 0.995117C80.2617 0.938896 80.3743 0.957165 80.4307 1.05078C80.487 1.14464 80.4679 1.25814 80.374 1.31445C79.6047 1.82121 79.2478 2.3652 79.0977 2.79688V2.81543C79.079 2.81543 79.0791 2.81623 79.0791 2.83496C78.9855 3.07859 78.9668 3.28467 78.9668 3.41602C78.9852 3.41629 78.9853 3.43554 79.0039 3.43555C79.1541 3.41678 79.3235 3.39746 79.4736 3.39746C80.5808 3.3976 81.6506 3.94187 82.4014 4.86133C82.5139 4.89885 82.6452 4.97458 82.7578 5.06836C82.7578 4.78679 82.8142 4.41113 83.002 4.07324C83.246 3.6415 83.6972 3.32302 84.2979 3.17285C84.3915 3.15427 84.4849 3.20997 84.5225 3.32227C84.56 3.41603 84.4853 3.52892 84.3916 3.54785C83.8848 3.67925 83.5278 3.92362 83.3213 4.28027C83.19 4.50545 83.1338 4.76802 83.1338 4.99316C83.2276 4.91812 83.3403 4.86196 83.4717 4.80566C84.185 4.52416 84.898 4.97463 85.1045 5.3125C85.1233 5.33132 85.18 5.4064 85.2363 5.48145C85.6494 5.98842 86.6247 7.20851 86.7373 8.97266C86.8687 11.0938 85.236 11.8076 85.1797 11.8076C85.1613 11.826 85.1609 11.8262 85.1426 11.8262C85.1238 11.8262 85.0107 11.8445 84.8418 11.8633C84.4851 12.1636 84.0533 12.3519 83.584 12.4082C83.4903 12.4269 83.3965 12.4268 83.3027 12.4268C82.6645 12.4268 82.026 12.1825 81.4629 11.7695C80.8622 12.1637 80.1674 12.3887 79.4541 12.3887C79.3041 12.3886 79.1354 12.3703 78.9854 12.3516C78.9666 12.3703 78.929 12.3886 78.8916 12.3887C76.0947 12.3887 74.3486 10.6805 74.3486 7.90234C74.3489 5.51856 76.2262 3.56618 78.5537 3.41602C78.5538 3.30359 78.572 3.1724 78.6094 3.00391C78.4968 3.00395 78.3656 3.02245 78.2344 3.02246C77.8402 3.02246 77.3334 2.92816 76.958 2.55273C76.2447 1.83942 76.1318 0.262369 76.1318 0.206055C76.1319 0.1499 76.1511 0.0940877 76.1885 0.0566406C76.226 0.0190978 76.2826 0 76.3389 0ZM12.96 0.700195C13.1471 1.34471 13.3291 1.9945 13.5059 2.64941C13.693 3.29397 13.875 3.94369 14.0518 4.59863C14.2389 5.24315 14.4262 5.89294 14.6133 6.54785C14.8004 7.19248 14.9824 7.84302 15.1592 8.49805C15.3463 9.14256 15.5284 9.79236 15.7051 10.4473C15.8922 11.0918 16.0795 11.7415 16.2666 12.3965H9.31055L9.0459 10.8682H6.9248L6.65918 12.3965H0L1.0918 8.49805C1.27895 7.84302 1.46094 7.19248 1.6377 6.54785L3.27539 0.700195H12.96ZM28.8818 0.700195C29.5782 0.700254 30.1549 0.835233 30.6123 1.10547C31.0698 1.3654 31.4129 1.70326 31.6416 2.11914C31.8807 2.53492 32.0009 2.97137 32.001 3.42871C32.001 3.88619 31.8807 4.33383 31.6416 4.77051C31.4025 5.19668 31.0384 5.54516 30.5498 5.81543C30.0716 6.08561 29.4688 6.22068 28.7412 6.2207C28.7412 6.2207 28.7359 6.2207 28.7256 6.2207C28.7256 6.2207 28.7256 6.22593 28.7256 6.23633H28.7412C29.5833 6.23635 30.28 6.38698 30.8311 6.68848C31.382 6.98996 31.7922 7.37498 32.0625 7.84277C32.3328 8.31063 32.4687 8.80438 32.4688 9.32422C32.4688 9.70891 32.3903 10.0834 32.2344 10.4473C32.0888 10.8111 31.865 11.1438 31.5635 11.4453C31.2621 11.7363 30.8883 11.9708 30.4414 12.1475C29.9944 12.3138 29.4743 12.3964 28.8818 12.3965H16.6074V0.700195H28.8818ZM44.1953 0.700195C45.1101 0.700251 45.8687 0.866565 46.4717 1.19922C47.0747 1.52153 47.5276 1.94206 47.8291 2.46191C48.1306 2.97134 48.2812 3.51219 48.2812 4.08398C48.2812 4.67662 48.1149 5.25398 47.7822 5.81543C47.4599 6.36648 46.9652 6.81837 46.2998 7.17188C45.6448 7.52527 44.8235 7.70215 43.8359 7.70215H42.6816V7.76465H46.2227L48.624 12.3965H41.2158C41.0183 11.8663 40.8153 11.3358 40.6074 10.8057C40.4099 10.2755 40.2079 9.74499 40 9.21484C39.8025 8.68462 39.5995 8.15425 39.3916 7.62402H41.2002C41.4081 7.62402 41.5901 7.59265 41.7461 7.53027C41.9123 7.46794 42.0474 7.38512 42.1514 7.28125C42.2553 7.17736 42.3338 7.06313 42.3857 6.93848C42.4377 6.80331 42.4639 6.66739 42.4639 6.53223C42.4638 6.34523 42.4167 6.16819 42.3232 6.00195C42.2297 5.83577 42.0894 5.70057 41.9023 5.59668C41.7152 5.49272 41.4809 5.44141 41.2002 5.44141H39.4229C39.4222 5.44211 39.4166 5.44666 39.4072 5.45605C39.4072 5.45605 39.4018 5.45605 39.3916 5.45605V12.3965H32.9189V0.700195H44.1953ZM55.459 12.3965H48.9873V0.700195H55.459V12.3965ZM101 5.44141H97.2412C97.2401 5.44254 97.2345 5.4471 97.2256 5.45605H97.21V12.3965H90.7373V5.47168C90.7372 5.46173 90.7326 5.4562 90.7227 5.45605C90.7225 5.44611 90.717 5.44155 90.707 5.44141H86.9482V0.700195H101V5.44141ZM79.4541 3.77344C77.4834 3.77365 75.8693 5.63132 75.8691 7.90234C75.8691 10.1548 77.4833 12.0135 79.4541 12.0137C80.0548 12.0137 80.6563 11.8445 81.1631 11.5254C80.4122 10.8496 79.8112 9.83592 79.5859 8.65332C79.2482 6.90778 79.8861 5.31222 81.1436 4.74902H81.1631C81.2018 4.74843 81.4079 4.67373 81.7256 4.69238C81.0874 4.11066 80.2799 3.77344 79.4541 3.77344ZM82.9463 5.80078C82.2893 4.91853 81.4627 5.06793 81.3125 5.10547C80.787 5.48091 80.8997 7.0203 81.2188 8.31543C81.5191 9.49803 82.0829 10.3995 83.0215 11.1504C83.6598 11.6568 84.8983 11.4885 85.0859 11.4697C85.2549 11.3759 86.4564 10.7557 86.3438 8.99121C86.2498 7.33948 85.3297 6.19408 84.9355 5.70605C84.8606 5.6124 84.8041 5.55625 84.7666 5.5C84.6351 5.2935 84.0907 4.9371 83.584 5.14355C83.2277 5.29364 83.2274 5.49984 83.2461 5.59375C83.3399 5.70637 83.6216 6.04433 83.6592 6.43848C84.1284 6.56987 84.7104 7.02043 84.748 7.88379C84.8044 8.16534 84.8418 8.50339 84.8418 8.80371C84.8418 9.27285 84.7293 9.68567 84.2979 9.74219H84.2031C83.6025 9.74179 82.721 8.99097 82.6084 8.14648C82.5334 7.54592 82.6832 6.88921 82.9834 6.58887C83.0773 6.49501 83.1713 6.43869 83.3027 6.41992C83.2472 6.1239 82.9727 5.82779 82.9648 5.81934V5.80078H82.9463ZM84.5977 10.1553C84.6539 10.0615 84.7665 10.024 84.8604 10.0801L85.4609 10.418C85.5548 10.4743 85.5922 10.5868 85.5547 10.6807C85.5171 10.737 85.4608 10.7744 85.3857 10.7744C85.3485 10.7744 85.3294 10.7746 85.292 10.7559L84.6729 10.418C84.5791 10.3616 84.5414 10.2491 84.5977 10.1553ZM85.3115 9.74219L85.7236 9.94922C85.8175 10.0055 85.8551 10.1175 85.7988 10.1738C85.7613 10.2489 85.705 10.2871 85.6299 10.2871C85.611 10.2871 85.5733 10.2862 85.5547 10.2676L85.1426 10.0615C85.0675 10.024 85.0298 9.91124 85.0674 9.81738C85.105 9.7424 85.2177 9.70467 85.3115 9.74219ZM7.90723 4.94141C7.86564 5.19094 7.80813 5.51409 7.73535 5.90918C7.67299 6.30413 7.60498 6.72498 7.53223 7.17188C7.45945 7.60856 7.39246 8.02483 7.33008 8.41992C7.26771 8.80454 7.21541 9.12683 7.17383 9.38672C7.13311 9.631 7.11217 9.75566 7.11133 9.76074V9.77637H8.8584V9.76074C8.85745 9.75507 8.83651 9.63041 8.7959 9.38672C8.75431 9.12682 8.69679 8.80456 8.62402 8.41992C8.56164 8.02483 8.49465 7.60856 8.42188 7.17188C8.34912 6.72498 8.28111 6.30413 8.21875 5.90918C8.15637 5.51409 8.09984 5.19094 8.04785 4.94141C8.0063 4.69212 7.98535 4.56738 7.98535 4.56738C7.98535 4.56738 7.9799 4.56738 7.96973 4.56738C7.96973 4.56738 7.94876 4.69219 7.90723 4.94141ZM22.752 6.84473V8.23242H24.9824C25.2631 8.23242 25.4713 8.16012 25.6064 8.01465C25.7519 7.86921 25.8241 7.70259 25.8242 7.51562C25.8242 7.42205 25.8085 7.33841 25.7773 7.26562C25.7462 7.18252 25.7 7.10922 25.6377 7.04688C25.5857 6.97418 25.5124 6.92277 25.4189 6.8916C25.3358 6.85005 25.2373 6.82913 25.123 6.8291H22.7676C22.7665 6.83016 22.7612 6.83552 22.752 6.84473ZM22.7676 4.64551C22.7574 4.64559 22.752 4.65083 22.752 4.66113V6.04883H24.9043C25.0912 6.04883 25.2474 6.01831 25.3721 5.95605C25.4968 5.88327 25.5909 5.7944 25.6533 5.69043C25.7156 5.57618 25.747 5.45665 25.7471 5.33203C25.7471 5.15539 25.6842 4.99936 25.5596 4.86426C25.4452 4.71872 25.2736 4.64553 25.0449 4.64551H22.7676Z" fill="var(--fill-0, #0F0F0F)"/>
</svg>
